<mxfile host="app.diagrams.net" agent="Mozilla/5.0 (Windows NT 10.0; Win64; x64) AppleWebKit/537.36 (KHTML, like Gecko) Chrome/135.0.0.0 Safari/537.36" version="26.2.14">
  <diagram name="n8n Process Diagram" id="0">
    <mxGraphModel dx="1426" dy="3115" grid="1" gridSize="10" guides="1" tooltips="1" connect="1" arrows="1" fold="1" page="1" pageScale="1" pageWidth="827" pageHeight="1169" math="0" shadow="0">
      <root>
        <mxCell id="0" />
        <mxCell id="1" parent="0" />
        <mxCell id="2" value="Start (Webhook Trigger)" style="ellipse;fillColor=#dae8fc;strokeColor=#6c8ebf" parent="1" vertex="1">
          <mxGeometry x="90" y="-2240" width="120" height="60" as="geometry" />
        </mxCell>
        <mxCell id="3" value="Check Media Type" style="rhombus;fillColor=#fff2cc;strokeColor=#d6b656" parent="1" vertex="1">
          <mxGeometry x="270" y="-2240" width="120" height="60" as="geometry" />
        </mxCell>
        <mxCell id="4" value="WhatsApp Text" style="shape=mxgraph.flowchart.data;fillColor=#d5e8d4" parent="1" vertex="1">
          <mxGeometry x="470" y="-2260" width="120" height="60" as="geometry" />
        </mxCell>
        <mxCell id="5" value="WhatsApp Voice" style="shape=mxgraph.flowchart.data;fillColor=#f8cecc" parent="1" vertex="1">
          <mxGeometry x="470" y="-2180" width="120" height="60" as="geometry" />
        </mxCell>
        <mxCell id="6" value="Validate Parameters" style="rounded=1;fillColor=#e1d5e7;strokeColor=#9673a6" parent="1" vertex="1">
          <mxGeometry x="670" y="-2220" width="120" height="60" as="geometry" />
        </mxCell>
        <mxCell id="7" value="Agent &amp; LLM Process" style="swimlane;horizontal=0;fillColor=#f5f5f5;strokeColor=#ff9900" parent="1" vertex="1">
          <mxGeometry x="870" y="-2260" width="120" height="60" as="geometry" />
        </mxCell>
        <mxCell id="8" value="Database" style="shape=database;fillColor=#dae8fc" parent="1" vertex="1">
          <mxGeometry x="1090" y="-2220" width="120" height="60" as="geometry" />
        </mxCell>
        <mxCell id="9" value="Check Response Channel" style="rhombus;fillColor=#fff2cc" parent="1" vertex="1">
          <mxGeometry x="1270" y="-2220" width="120" height="60" as="geometry" />
        </mxCell>
        <mxCell id="10" value="Prepare JSON Format" style="rounded=1;fillColor=#e1d5e7" parent="1" vertex="1">
          <mxGeometry x="1090" y="-2140" width="120" height="60" as="geometry" />
        </mxCell>
        <mxCell id="11" value="Send Response" style="shape=mxgraph.basic.rect;fillColor=#d5e8d4" parent="1" vertex="1">
          <mxGeometry x="1470" y="-2220" width="120" height="60" as="geometry" />
        </mxCell>
        <mxCell id="TL54MWlyIRIG62Vx7n2m-14" value="" style="shape=or;whiteSpace=wrap;html=1;" vertex="1" parent="1">
          <mxGeometry x="800" y="-1990" width="60" height="80" as="geometry" />
        </mxCell>
      </root>
    </mxGraphModel>
  </diagram>
</mxfile>
